<svg xmlns="http://www.w3.org/2000/svg" version="1.1" fill="currentColor" width="30" height="30" viewBox="0 0 512 512" xml:space="preserve">
  <g>
    <!-- Outer frame -->
      <path d="M128 96h32V64h32v32h128V64h32v32h32c26 0 48 22 48 48v256c0 26-22 48-48 48H128c-26 0-48-22-48-48V144c0-26 22-48 48-48zm-16 96v208c0 9 7 16 16 16h256c9 0 16-7 16-16V192H112z"/>
      <!-- Top bar -->
      <rect x="112" y="144" width="288" height="32"/>

      <!-- Rings -->
      <rect x="160" y="64" width="32" height="64"/>
      <rect x="320" y="64" width="32" height="64"/>

      <!-- Small date dots -->
      <rect x="160" y="240" width="48" height="48"/>
      <rect x="232" y="240" width="48" height="48"/>
      <rect x="304" y="240" width="48" height="48"/>
      <rect x="160" y="312" width="48" height="48"/>
      <rect x="232" y="312" width="48" height="48"/>
  </g>
</svg>