<svg xmlns="http://www.w3.org/2000/svg" viewBox="0 0 24 24" width="100%" height="100%" preserveAspectRatio="xMidYMid meet">
    <path
            d="M13 16v5h-2v-5c-3.5 0-6-2-6-5 0-2 2-4 5-4.5V6c0-1.5 1-2.5 2-2.5s2 1 2 2.5v0.5c3 0.5 5 2.5 5 4.5 0 3-2.5 5-6 5z"
            fill="var(--poi-fg, #1e293b)"
    />
    <path
            d="M7 10c-1.5 0-3 1-3 2.5s1.5 2.5 3 2.5M17 10c1.5 0 3 1 3 2.5s-1.5 2.5-3 2.5"
            fill="none"
            stroke="var(--poi-fg, #1e293b)"
            stroke-width="1.2"
            stroke-linecap="round"
            stroke-linejoin="round"
    />
</svg>